<svg width="124" height="124" viewBox="0 0 124 124" fill="none" xmlns="http://www.w3.org/2000/svg">
<g clip-path="url(#clip0_1_475)">
<path d="M-0.028424 74.8443V54.3223C-0.0313974 54.2481 -0.0191831 54.1741 0.00747048 54.1048C0.034124 54.0355 0.0746486 53.9723 0.12657 53.9193C0.182359 53.8602 0.249655 53.8133 0.324301 53.7813C0.398947 53.7493 0.479364 53.733 0.560576 53.7333H13.3946C13.5468 53.7451 13.6899 53.811 13.7979 53.919C13.9059 54.027 13.9717 54.17 13.9836 54.3223V57.7013C13.9839 57.7825 13.9675 57.8629 13.9355 57.9375C13.9035 58.0122 13.8566 58.0795 13.7976 58.1353C13.7445 58.1872 13.6814 58.2277 13.6121 58.2544C13.5428 58.281 13.4688 58.2932 13.3946 58.2903H4.80757V62.7543H11.8833C12.0356 62.7661 12.1786 62.832 12.2866 62.94C12.3946 63.048 12.4605 63.191 12.4723 63.3433V66.7223C12.4702 66.7985 12.4527 66.8736 12.4207 66.9429C12.3887 67.0121 12.343 67.0742 12.2863 67.1253C12.2381 67.1853 12.1766 67.2333 12.1067 67.2656C12.0367 67.2979 11.9603 67.3135 11.8833 67.3113H4.80757V74.8443C4.79571 74.9965 4.72985 75.1396 4.62186 75.2476C4.51386 75.3556 4.37084 75.4214 4.21857 75.4333H0.560576C0.481235 75.4413 0.40109 75.4317 0.325956 75.4049C0.250823 75.3782 0.182584 75.335 0.126191 75.2787C0.0697987 75.2223 0.0266614 75.154 -8.21147e-05 75.0789C-0.0268256 75.0037 -0.0365026 74.9236 -0.028424 74.8443ZM17.4375 74.8443V54.3223C17.4493 54.17 17.5152 54.027 17.6232 53.919C17.7312 53.811 17.8742 53.7451 18.0265 53.7333H21.7465C21.8988 53.7451 22.0418 53.811 22.1498 53.919C22.2578 54.027 22.3236 54.17 22.3355 54.3223V74.8443C22.3236 74.9965 22.2578 75.1396 22.1498 75.2476C22.0418 75.3556 21.8988 75.4214 21.7465 75.4333H18.0265C17.8742 75.4214 17.7312 75.3556 17.6232 75.2476C17.5152 75.1396 17.4493 74.9965 17.4375 74.8443ZM27.6701 74.8443L27.6417 53.9916C27.6413 53.9224 27.6548 53.8538 27.6814 53.7899C27.708 53.726 27.7472 53.6681 27.7967 53.6196C27.8524 53.5606 27.9197 53.5136 27.9944 53.4816C28.069 53.4496 28.1494 53.4333 28.2307 53.4336H29.0057L41.3747 65.3376H41.4057V54.3326C41.4027 54.2584 41.4149 54.1844 41.4415 54.1151C41.4682 54.0458 41.5087 53.9827 41.5607 53.9296C41.6164 53.8706 41.6837 53.8236 41.7584 53.7916C41.833 53.7596 41.9134 53.7433 41.9947 53.7436H45.725C45.802 53.7414 45.8784 53.757 45.9483 53.7893C46.0182 53.8215 46.0797 53.8696 46.128 53.9296C46.1847 53.9807 46.2304 54.0427 46.2624 54.112C46.2943 54.1813 46.3119 54.2563 46.314 54.3326V75.1749C46.3136 75.247 46.2966 75.3181 46.2644 75.3826C46.2321 75.4471 46.1854 75.5033 46.128 75.5469C46.0797 75.607 46.0182 75.655 45.9483 75.6872C45.8784 75.7195 45.802 75.7351 45.725 75.7329H45.2083C45.1341 75.7359 45.0601 75.7237 44.9908 75.697C44.9215 75.6704 44.8584 75.6299 44.8053 75.5779L32.5681 63.2916H32.55V74.8546C32.5503 74.9358 32.5339 75.0162 32.502 75.0909C32.47 75.1655 32.423 75.2328 32.364 75.2886C32.3109 75.3405 32.2478 75.3811 32.1785 75.4077C32.1092 75.4344 32.0352 75.4466 31.961 75.4436H28.2591C28.1068 75.4317 27.9638 75.3659 27.8558 75.2579C27.7478 75.1499 27.6819 75.0069 27.6701 74.8546V74.8443Z" fill="white"/>
<path d="M1.15219 91.2303V79.9128C1.14784 79.8833 1.15045 79.8531 1.15982 79.8248C1.16919 79.7965 1.18505 79.7708 1.20614 79.7497C1.22723 79.7286 1.25296 79.7128 1.28127 79.7034C1.30958 79.694 1.33969 79.6914 1.36919 79.6958H1.73861C1.76821 79.6915 1.79838 79.6942 1.82678 79.7035C1.85517 79.7129 1.88101 79.7287 1.90228 79.7497C1.92354 79.7708 1.93966 79.7964 1.94936 79.8247C1.95906 79.853 1.96208 79.8831 1.95819 79.9128V91.2303C1.95819 91.3776 1.87811 91.4499 1.72311 91.4499H1.36919C1.33954 91.4538 1.3094 91.4508 1.28112 91.4411C1.25284 91.4314 1.22719 91.4153 1.20617 91.394C1.18515 91.3727 1.16934 91.3469 1.15998 91.3185C1.15061 91.2901 1.14795 91.2599 1.15219 91.2303ZM4.16953 91.2303V79.7448C4.16953 79.6002 4.25478 79.5278 4.42786 79.5278H4.71202L12.772 90.0213H12.7901V79.9128C12.7858 79.8833 12.7884 79.8531 12.7977 79.8248C12.8071 79.7965 12.823 79.7708 12.8441 79.7497C12.8651 79.7286 12.8909 79.7128 12.9192 79.7034C12.9475 79.694 12.9776 79.6914 13.0071 79.6958H13.3429C13.3725 79.6915 13.4027 79.6942 13.4311 79.7035C13.4595 79.7129 13.4853 79.7287 13.5066 79.7497C13.5279 79.7708 13.544 79.7964 13.5537 79.8247C13.5634 79.853 13.5664 79.8831 13.5625 79.9128V91.3982C13.5625 91.5455 13.4721 91.6178 13.3042 91.6178H13.0846C13.0071 91.6178 10.2981 88.0873 4.95744 81.0262H4.94194V91.2355C4.94628 91.2653 4.94359 91.2958 4.93408 91.3244C4.92458 91.353 4.90853 91.379 4.88721 91.4003C4.86588 91.4217 4.83988 91.4377 4.81126 91.4472C4.78265 91.4567 4.7522 91.4594 4.72236 91.4551H4.39169C4.36116 91.4601 4.32986 91.4577 4.30044 91.4481C4.27101 91.4386 4.24431 91.4221 4.22256 91.4001C4.2008 91.3781 4.18464 91.3512 4.17541 91.3217C4.16618 91.2921 4.16417 91.2608 4.16953 91.2303ZM15.7816 91.2303V79.7448C15.7816 79.6002 15.8643 79.5278 16.0399 79.5278H16.3267L24.3867 90.0213H24.4022V79.9128C24.3983 79.8831 24.4013 79.853 24.411 79.8247C24.4207 79.7964 24.4368 79.7708 24.4581 79.7497C24.4794 79.7287 24.5052 79.7129 24.5336 79.7035C24.562 79.6942 24.5922 79.6915 24.6218 79.6958H24.9576C24.9871 79.6914 25.0172 79.694 25.0455 79.7034C25.0738 79.7128 25.0996 79.7286 25.1207 79.7497C25.1418 79.7708 25.1576 79.7965 25.167 79.8248C25.1763 79.8531 25.179 79.8833 25.1746 79.9128V91.3982C25.1746 91.5455 25.0868 91.6178 24.9163 91.6178H24.6993C24.62 91.6178 21.911 88.0873 16.5721 81.0262H16.5334V91.2355C16.5376 91.2651 16.5349 91.2953 16.5256 91.3237C16.5162 91.3521 16.5004 91.3779 16.4794 91.3992C16.4584 91.4204 16.4327 91.4365 16.4044 91.4462C16.3761 91.4559 16.346 91.459 16.3164 91.4551H15.996C15.9661 91.4587 15.9357 91.4553 15.9073 91.4452C15.8789 91.435 15.8533 91.4183 15.8324 91.3965C15.8116 91.3747 15.7962 91.3483 15.7874 91.3194C15.7785 91.2906 15.7766 91.2601 15.7816 91.2303ZM28.3159 89.8715C27.2968 88.8767 26.6551 87.5585 26.5007 86.1427C26.3464 84.7269 26.689 83.3014 27.4699 82.1104C28.2508 80.9193 29.4214 80.0368 30.7814 79.6138C32.1413 79.1908 33.606 79.2536 34.9247 79.7916C36.2434 80.3296 37.3341 81.3092 38.0101 82.5628C38.686 83.8164 38.9052 85.266 38.6301 86.6634C38.355 88.0608 37.6027 89.3191 36.502 90.2229C35.4014 91.1267 34.0207 91.6198 32.5965 91.6178C31.8017 91.6338 31.012 91.4871 30.2758 91.1868C29.5397 90.8865 28.8728 90.4389 28.3159 89.8715ZM28.8326 81.827C28.3332 82.3164 27.9383 82.9022 27.6718 83.5487C27.4054 84.1952 27.273 84.8891 27.2826 85.5883C27.2862 86.8142 27.7146 88.001 28.4948 88.9466C29.275 89.8921 30.3589 90.538 31.5618 90.7743C32.7647 91.0107 34.0123 90.8227 35.0923 90.2426C36.1722 89.6624 37.0177 88.7259 37.4847 87.5925C37.9518 86.459 38.0116 85.1987 37.654 84.0262C37.2963 82.8536 36.5433 81.8413 35.5231 81.1615C34.503 80.4817 33.2787 80.1765 32.0589 80.2978C30.839 80.4191 29.6988 80.9596 28.8326 81.827ZM43.3613 91.4654L38.2902 79.9128C38.223 79.7681 38.2669 79.6958 38.4245 79.6958H38.8766C38.9163 79.6901 38.9568 79.6987 38.9908 79.72C39.0248 79.7413 39.0502 79.7738 39.0626 79.812L43.5964 90.2409H43.6299L48.2154 79.8249C48.2277 79.7868 48.2532 79.7542 48.2872 79.7329C48.3212 79.7117 48.3616 79.7031 48.4014 79.7087H48.8379C49.0162 79.7087 49.0653 79.7862 48.9878 79.9438L43.834 91.4783C43.8202 91.5214 43.7935 91.5592 43.7574 91.5864C43.7213 91.6137 43.6777 91.6292 43.6325 91.6308H43.5473C43.5019 91.6299 43.4584 91.6127 43.4247 91.5823C43.3911 91.5519 43.3694 91.5104 43.3639 91.4654H43.3613ZM47.3784 91.4499C47.2544 91.4499 47.2156 91.3827 47.2595 91.2484L52.4417 79.5666C52.4611 79.5302 52.4902 79.4998 52.5258 79.4789C52.5613 79.4579 52.6019 79.4471 52.6432 79.4477H52.6949C52.7385 79.4451 52.7821 79.4549 52.8205 79.4759C52.8589 79.4969 52.8905 79.5284 52.9119 79.5666L58.0346 91.2536C58.0785 91.3879 58.0346 91.4551 57.8822 91.4551H57.4456C57.3954 91.4575 57.3457 91.444 57.3035 91.4167C57.2614 91.3894 57.2288 91.3495 57.2105 91.3027L55.8517 88.2027H49.4295L48.0862 91.3027C48.0658 91.348 48.0328 91.3865 47.9911 91.4135C47.9494 91.4405 47.9008 91.455 47.8511 91.4551L47.3784 91.4499ZM49.7292 87.5542H55.5546L52.7 80.7859H52.6664L49.7292 87.5542ZM59.6905 91.2303V80.4165H56.4846C56.3399 80.4165 56.2676 80.3338 56.2676 80.1582V79.8998C56.2633 79.8703 56.2659 79.8402 56.2752 79.8119C56.2846 79.7836 56.3005 79.7579 56.3216 79.7368C56.3426 79.7157 56.3684 79.6998 56.3967 79.6905C56.425 79.6811 56.4551 79.6785 56.4846 79.6828H63.7179C63.7475 79.6786 63.7777 79.6813 63.8061 79.6906C63.8345 79.7 63.8603 79.7158 63.8816 79.7368C63.9029 79.7578 63.919 79.7835 63.9287 79.8118C63.9384 79.8401 63.9414 79.8702 63.9375 79.8998V80.1866C63.9414 80.2162 63.9384 80.2464 63.9287 80.2747C63.919 80.3029 63.9029 80.3286 63.8816 80.3496C63.8603 80.3706 63.8345 80.3864 63.8061 80.3958C63.7777 80.4052 63.7475 80.4078 63.7179 80.4036H60.481V91.2174C60.481 91.3647 60.3932 91.437 60.2227 91.437H59.9204C59.8912 91.4423 59.8612 91.4407 59.8326 91.4325C59.8041 91.4243 59.7778 91.4096 59.7559 91.3897C59.7339 91.3697 59.7168 91.3449 59.7059 91.3173C59.695 91.2897 59.6907 91.2599 59.6931 91.2303H59.6905ZM64.4878 91.2303V79.9128C64.4834 79.8833 64.486 79.8531 64.4954 79.8248C64.5048 79.7965 64.5206 79.7708 64.5417 79.7497C64.5628 79.7286 64.5885 79.7128 64.6168 79.7034C64.6452 79.694 64.6753 79.6914 64.7048 79.6958H65.0742C65.1038 79.6915 65.134 79.6942 65.1624 79.7035C65.1907 79.7129 65.2166 79.7287 65.2379 79.7497C65.2591 79.7708 65.2752 79.7964 65.2849 79.8247C65.2946 79.853 65.2977 79.8831 65.2938 79.9128V91.2303C65.2938 91.3776 65.2163 91.4499 65.0587 91.4499H64.7048C64.6753 91.4534 64.6455 91.45 64.6175 91.4401C64.5896 91.4302 64.5643 91.4141 64.5436 91.3929C64.5229 91.3716 64.5073 91.346 64.4981 91.3178C64.4888 91.2896 64.4862 91.2597 64.4904 91.2303H64.4878ZM68.4299 89.8715C67.4108 88.8767 66.7691 87.5585 66.6147 86.1427C66.4604 84.7269 66.803 83.3014 67.5839 82.1104C68.3648 80.9193 69.5354 80.0368 70.8954 79.6138C72.2553 79.1908 73.72 79.2536 75.0387 79.7916C76.3574 80.3296 77.4481 81.3092 78.124 82.5628C78.8 83.8164 79.0192 85.266 78.7441 86.6634C78.469 88.0608 77.7167 89.3191 76.616 90.2229C75.5154 91.1267 74.1347 91.6198 72.7105 91.6178C71.9161 91.6335 71.1269 91.4866 70.3912 91.1863C69.6556 90.886 68.9891 90.4386 68.4325 89.8715H68.4299ZM68.9466 81.827C68.4472 82.3164 68.0523 82.9022 67.7858 83.5487C67.5194 84.1952 67.387 84.8891 67.3966 85.5883C67.4002 86.8142 67.8286 88.001 68.6088 88.9466C69.389 89.8921 70.4728 90.538 71.6758 90.7743C72.8787 91.0107 74.1263 90.8227 75.2063 90.2426C76.2862 89.6624 77.1317 88.7259 77.5987 87.5925C78.0658 86.459 78.1256 85.1987 77.768 84.0262C77.4103 82.8536 76.6573 81.8413 75.6371 81.1615C74.617 80.4817 73.3927 80.1765 72.1728 80.2978C70.953 80.4191 69.8129 80.9596 68.9466 81.827ZM80.1479 91.2303V79.7448C80.1479 79.6002 80.2306 79.5278 80.4063 79.5278H80.693L88.753 90.0213H88.7685V79.9128C88.7646 79.8831 88.7676 79.853 88.7774 79.8247C88.787 79.7964 88.8032 79.7708 88.8244 79.7497C88.8457 79.7287 88.8715 79.7129 88.8999 79.7035C88.9283 79.6942 88.9585 79.6915 88.9881 79.6958H89.3239C89.3534 79.6914 89.3836 79.694 89.4119 79.7034C89.4402 79.7128 89.4659 79.7286 89.487 79.7497C89.5081 79.7708 89.5239 79.7965 89.5333 79.8248C89.5427 79.8531 89.5453 79.8833 89.5409 79.9128V91.3982C89.5409 91.5455 89.4531 91.6178 89.2826 91.6178H89.0656C88.9881 91.6178 86.279 88.0873 80.9384 81.0262H80.9203V91.2355C80.9246 91.2651 80.9219 91.2953 80.9126 91.3237C80.9032 91.3521 80.8874 91.3779 80.8664 91.3992C80.8454 91.4204 80.8197 91.4365 80.7914 91.4462C80.7631 91.4559 80.733 91.459 80.7034 91.4551H80.383C80.3519 91.4615 80.3197 91.4602 80.2892 91.4513C80.2588 91.4424 80.2309 91.4261 80.2082 91.4039C80.1855 91.3817 80.1686 91.3543 80.159 91.324C80.1494 91.2937 80.1474 91.2616 80.1531 91.2303H80.1479ZM94.0566 91.2303V79.9128C94.0523 79.8833 94.0549 79.8531 94.0642 79.8248C94.0736 79.7965 94.0895 79.7708 94.1105 79.7497C94.1316 79.7286 94.1574 79.7128 94.1857 79.7034C94.214 79.694 94.2441 79.6914 94.2736 79.6958H94.6275C94.657 79.6914 94.6871 79.694 94.7155 79.7034C94.7438 79.7128 94.7695 79.7286 94.7906 79.7497C94.8117 79.7708 94.8275 79.7965 94.8369 79.8248C94.8463 79.8531 94.8489 79.8833 94.8445 79.9128V85.0794H102.385V79.9128C102.381 79.8833 102.384 79.8531 102.393 79.8248C102.402 79.7965 102.418 79.7708 102.439 79.7497C102.46 79.7286 102.486 79.7128 102.514 79.7034C102.543 79.694 102.573 79.6914 102.602 79.6958H102.956C102.986 79.6914 103.016 79.694 103.044 79.7034C103.072 79.7128 103.098 79.7286 103.119 79.7497C103.14 79.7708 103.156 79.7965 103.166 79.8248C103.175 79.8531 103.178 79.8833 103.173 79.9128V91.2303C103.177 91.2599 103.175 91.2901 103.165 91.3185C103.156 91.3469 103.14 91.3727 103.119 91.394C103.098 91.4153 103.073 91.4314 103.044 91.4411C103.016 91.4508 102.986 91.4538 102.956 91.4499H102.602C102.573 91.4538 102.542 91.4508 102.514 91.4411C102.486 91.4314 102.46 91.4153 102.439 91.394C102.418 91.3727 102.402 91.3469 102.393 91.3185C102.384 91.2901 102.381 91.2599 102.385 91.2303V85.7666H94.8497V91.2226C94.8539 91.2522 94.8513 91.2824 94.8419 91.3108C94.8325 91.3391 94.8167 91.365 94.7957 91.3862C94.7747 91.4075 94.749 91.4236 94.7207 91.4333C94.6925 91.443 94.6623 91.4461 94.6327 91.4422H94.2917C94.2618 91.448 94.231 91.4468 94.2017 91.4385C94.1723 91.4302 94.1454 91.4152 94.123 91.3945C94.1006 91.3739 94.0834 91.3483 94.0728 91.3198C94.0621 91.2912 94.0583 91.2606 94.0618 91.2303H94.0566ZM105.253 87.1667V79.9128C105.249 79.8831 105.252 79.853 105.262 79.8247C105.271 79.7964 105.287 79.7708 105.309 79.7497C105.33 79.7287 105.356 79.7129 105.384 79.7035C105.413 79.6942 105.443 79.6915 105.472 79.6958H105.824C105.853 79.6915 105.883 79.6942 105.912 79.7035C105.94 79.7129 105.966 79.7287 105.987 79.7497C106.009 79.7708 106.025 79.7964 106.034 79.8247C106.044 79.853 106.047 79.8831 106.043 79.9128V87.0841C106.005 88.0825 106.354 89.0571 107.017 89.8043C107.665 90.4932 108.538 90.8377 109.637 90.8377C110.735 90.8377 111.614 90.4932 112.272 89.8043C112.945 89.068 113.301 88.0965 113.264 87.0996V79.9128C113.264 79.7681 113.341 79.6958 113.499 79.6958H113.835C113.864 79.6914 113.894 79.694 113.923 79.7034C113.951 79.7128 113.977 79.7286 113.998 79.7497C114.019 79.7708 114.035 79.7965 114.044 79.8248C114.053 79.8531 114.056 79.8833 114.052 79.9128V87.1667C114.072 87.7562 113.975 88.3439 113.764 88.895C113.554 89.4461 113.235 89.9495 112.827 90.3753C112.021 91.2036 110.958 91.6178 109.637 91.6178C108.316 91.6178 107.257 91.2036 106.462 90.3753C106.059 89.9468 105.745 89.4425 105.538 88.8917C105.331 88.341 105.236 87.7546 105.258 87.1667H105.253ZM116.131 91.2303V79.9128C116.127 79.8833 116.129 79.8531 116.139 79.8248C116.148 79.7965 116.164 79.7708 116.185 79.7497C116.206 79.7286 116.232 79.7128 116.26 79.7034C116.289 79.694 116.319 79.6914 116.348 79.6958H119.926C120.841 79.6521 121.739 79.9515 122.445 80.5353C122.76 80.8059 123.009 81.1442 123.175 81.525C123.34 81.9057 123.418 82.3189 123.401 82.7338C123.413 83.3344 123.232 83.9231 122.884 84.4129C122.551 84.8785 122.089 85.2375 121.556 85.4463C122.173 85.606 122.728 85.9449 123.153 86.4202C123.584 86.9301 123.806 87.5847 123.773 88.2518C123.786 88.6883 123.7 89.1221 123.521 89.5205C123.342 89.9188 123.075 90.2712 122.739 90.5509C121.996 91.1708 121.048 91.4914 120.081 91.4499H116.353C116.324 91.4538 116.294 91.4508 116.265 91.4411C116.237 91.4314 116.211 91.4153 116.19 91.394C116.169 91.3727 116.154 91.3469 116.144 91.3185C116.135 91.2901 116.132 91.2599 116.136 91.2303H116.131ZM116.919 85.1363H120.048C120.381 85.1539 120.715 85.105 121.029 84.9924C121.344 84.8797 121.633 84.7056 121.879 84.4801C122.103 84.2566 122.279 83.989 122.395 83.6942C122.51 83.3994 122.563 83.0838 122.551 82.7673C122.567 82.4475 122.512 82.1281 122.39 81.8319C122.268 81.5358 122.082 81.2703 121.846 81.0546C121.306 80.6177 120.624 80.3967 119.931 80.4346H116.924L116.919 85.1363ZM116.904 90.7447H120.143C120.876 90.7764 121.592 90.5236 122.143 90.0394C122.396 89.813 122.597 89.5337 122.731 89.2213C122.865 88.9088 122.928 88.5708 122.918 88.2311C122.93 87.8979 122.861 87.5667 122.718 87.2658C122.574 86.9648 122.36 86.7031 122.094 86.5028C121.508 86.053 120.783 85.821 120.045 85.8467H116.909L116.904 90.7447Z" fill="white"/>
<path d="M53.3949 74.8442V58.2902H48.9619C48.8825 58.2983 48.8024 58.2886 48.7273 58.2619C48.6521 58.2351 48.5839 58.192 48.5275 58.1356C48.4711 58.0792 48.428 58.011 48.4012 57.9358C48.3745 57.8607 48.3648 57.7806 48.3729 57.7012V54.3222C48.3699 54.248 48.3821 54.174 48.4088 54.1047C48.4354 54.0354 48.476 53.9723 48.5279 53.9192C48.5837 53.8602 48.651 53.8132 48.7256 53.7813C48.8003 53.7493 48.8807 53.7329 48.9619 53.7332H62.7259C62.8781 53.7451 63.0212 53.8109 63.1292 53.9189C63.2372 54.0269 63.303 54.1699 63.3149 54.3222V57.7012C63.3152 57.7824 63.2988 57.8628 63.2668 57.9375C63.2349 58.0121 63.1879 58.0794 63.1289 58.1352C63.0758 58.1871 63.0127 58.2277 62.9434 58.2543C62.8741 58.281 62.8001 58.2932 62.7259 58.2902H58.2929V74.8442C58.281 74.9965 58.2152 75.1395 58.1072 75.2475C57.9992 75.3555 57.8561 75.4214 57.7039 75.4332H53.9916C53.8394 75.4214 53.6963 75.3555 53.5883 75.2475C53.4804 75.1395 53.4145 74.9965 53.4026 74.8442H53.3949ZM66.4071 74.8442V54.3222C66.4042 54.248 66.4164 54.174 66.443 54.1047C66.4697 54.0354 66.5102 53.9723 66.5621 53.9192C66.6179 53.8602 66.6852 53.8132 66.7599 53.7813C66.8345 53.7493 66.9149 53.7329 66.9961 53.7332H79.825C79.9772 53.7451 80.1203 53.8109 80.2282 53.9189C80.3362 54.0269 80.4021 54.1699 80.414 54.3222V57.7012C80.4143 57.7824 80.3979 57.8628 80.3659 57.9375C80.3339 58.0121 80.287 58.0794 80.228 58.1352C80.1749 58.1871 80.1118 58.2277 80.0425 58.2543C79.9732 58.281 79.8992 58.2932 79.825 58.2902H71.2431V62.1342H78.3111C78.4634 62.1461 78.6064 62.2119 78.7144 62.3199C78.8224 62.4279 78.8883 62.5709 78.9001 62.7232V66.1022C78.9004 66.1834 78.8841 66.2638 78.8521 66.3385C78.8201 66.4131 78.7731 66.4804 78.7141 66.5362C78.6611 66.5881 78.5979 66.6287 78.5286 66.6553C78.4593 66.682 78.3853 66.6942 78.3111 66.6912H71.2431V70.8762H79.825C79.9772 70.8881 80.1203 70.9539 80.2282 71.0619C80.3362 71.1699 80.4021 71.313 80.414 71.4652V74.8442C80.4143 74.9254 80.3979 75.0058 80.3659 75.0805C80.3339 75.1551 80.287 75.2224 80.228 75.2782C80.1749 75.3301 80.1118 75.3707 80.0425 75.3973C79.9732 75.424 79.8992 75.4362 79.825 75.4332H66.9961C66.9168 75.4413 66.8367 75.4316 66.7615 75.4049C66.6864 75.3781 66.6181 75.335 66.5617 75.2786C66.5054 75.2222 66.4622 75.154 66.4355 75.0788C66.4087 75.0037 66.399 74.9235 66.4071 74.8442ZM86.2445 72.5192C84.2308 70.4419 83.0991 67.6659 83.0866 64.7728C83.0741 61.8796 84.1818 59.0939 86.1775 56.9993C88.1733 54.9047 90.9022 53.6638 93.7926 53.5365C96.6829 53.4092 99.5104 54.4055 101.683 56.3166C101.993 56.6059 102.003 56.8952 101.714 57.1845L99.2955 59.6749C99.2491 59.733 99.1901 59.78 99.123 59.8122C99.056 59.8445 98.9825 59.8613 98.908 59.8613C98.8336 59.8613 98.7601 59.8445 98.693 59.8122C98.626 59.78 98.567 59.733 98.5205 59.6749C97.3778 58.6341 95.881 58.0687 94.3355 58.0939C93.5184 58.0762 92.7071 58.2362 91.9578 58.5626C91.2085 58.8891 90.539 59.3744 89.9955 59.9849C88.8786 61.2094 88.2594 62.807 88.2594 64.4644C88.2594 66.1218 88.8786 67.7194 89.9955 68.9439C90.5548 69.5393 91.2328 70.0107 91.9858 70.3276C92.7387 70.6444 93.5498 70.7996 94.3665 70.7832C95.8873 70.8161 97.3666 70.2862 98.5205 69.2952C98.5712 69.2367 98.6344 69.1903 98.7055 69.1594C98.7765 69.1286 98.8536 69.1142 98.931 69.1171C99.0084 69.1201 99.0841 69.1405 99.1526 69.1766C99.221 69.2128 99.2805 69.2639 99.3265 69.3262L101.745 71.9095C102.013 72.1782 102.003 72.4572 101.714 72.7465C100.723 73.726 99.5456 74.4967 98.2517 75.0132C96.9578 75.5297 95.5734 75.7814 94.1805 75.7535C92.708 75.7775 91.2458 75.5033 89.882 74.9474C88.5182 74.3916 87.2809 73.5656 86.2445 72.5192ZM105.428 74.8442V54.3222C105.44 54.1699 105.506 54.0269 105.614 53.9189C105.722 53.8109 105.865 53.7451 106.017 53.7332H109.706C109.859 53.7451 110.002 53.8109 110.11 53.9189C110.218 54.0269 110.284 54.1699 110.295 54.3222V62.1342H119.161V54.3222C119.158 54.248 119.171 54.174 119.197 54.1047C119.224 54.0354 119.264 53.9723 119.316 53.9192C119.372 53.8602 119.439 53.8132 119.514 53.7813C119.589 53.7493 119.669 53.7329 119.75 53.7332H123.439C123.592 53.7451 123.735 53.8109 123.843 53.9189C123.951 54.0269 124.017 54.1699 124.028 54.3222V74.8442C124.017 74.9965 123.951 75.1395 123.843 75.2475C123.735 75.3555 123.592 75.4214 123.439 75.4332H119.75C119.671 75.4413 119.591 75.4316 119.516 75.4049C119.441 75.3781 119.372 75.335 119.316 75.2786C119.26 75.2222 119.216 75.154 119.19 75.0788C119.163 75.0037 119.153 74.9235 119.161 74.8442V66.6912H110.308V74.8442C110.309 74.9254 110.292 75.0058 110.26 75.0805C110.228 75.1551 110.181 75.2224 110.122 75.2782C110.069 75.3301 110.006 75.3707 109.937 75.3973C109.868 75.424 109.793 75.4362 109.719 75.4332H106.017C105.865 75.4214 105.722 75.3555 105.614 75.2475C105.506 75.1395 105.44 74.9965 105.428 74.8442Z" fill="#22A4E2"/>
<path d="M36.1072 19.2406L33.0512 15.934C32.9131 15.7856 32.7465 15.6666 32.5614 15.5841C32.3764 15.5015 32.1765 15.4571 31.9739 15.4535L26.9519 15.3656L26.9752 14.074L31.9972 14.1618C32.3735 14.1697 32.7444 14.2531 33.0879 14.4071C33.4313 14.5611 33.7404 14.7825 33.9967 15.0582L37.0527 18.3649L36.1072 19.2406Z" fill="#22A4E2"/>
<path d="M28.6543 21.9583H23.2991C22.8406 21.9573 22.3975 21.7934 22.0487 21.4959L20.0673 19.7934C19.953 19.6952 19.8073 19.6411 19.6566 19.641H15.0298C14.8585 19.641 14.6943 19.573 14.5731 19.4519C14.452 19.3308 14.384 19.1665 14.384 18.9952C14.384 18.8239 14.452 18.6596 14.5731 18.5385C14.6943 18.4174 14.8585 18.3494 15.0298 18.3494H19.6566C20.1153 18.3487 20.559 18.5128 20.9069 18.8118L22.8909 20.5142C23.0051 20.6106 23.1496 20.6636 23.2991 20.664H28.6543C28.8035 20.6646 28.948 20.6124 29.0625 20.5168L31 18.8841C31.4066 18.5404 31.9219 18.3519 32.4544 18.352H46.5697C46.741 18.352 46.9053 18.42 47.0264 18.5411C47.1475 18.6622 47.2156 18.8265 47.2156 18.9978C47.2156 19.1691 47.1475 19.3333 47.0264 19.4545C46.9053 19.5756 46.741 19.6436 46.5697 19.6436H32.4492C32.2213 19.6434 32.0008 19.7239 31.8266 19.871L29.8943 21.5062C29.5472 21.7983 29.108 21.9585 28.6543 21.9583Z" fill="#22A4E2"/>
<path d="M24.9137 17.0499C24.4441 17.0499 23.9851 16.9107 23.5947 16.6498C23.2043 16.389 22.9 16.0182 22.7203 15.5844C22.5406 15.1506 22.4936 14.6732 22.5852 14.2127C22.6768 13.7522 22.9029 13.3291 23.235 12.9971C23.567 12.6651 23.99 12.439 24.4505 12.3474C24.9111 12.2558 25.3884 12.3028 25.8222 12.4825C26.256 12.6622 26.6268 12.9665 26.8877 13.3569C27.1485 13.7473 27.2878 14.2063 27.2878 14.6758C27.2871 15.3053 27.0368 15.9087 26.5917 16.3538C26.1466 16.7989 25.5431 17.0492 24.9137 17.0499ZM24.9137 13.5908C24.6991 13.5908 24.4893 13.6545 24.3109 13.7737C24.1325 13.8929 23.9934 14.0624 23.9113 14.2606C23.8292 14.4589 23.8077 14.6771 23.8495 14.8875C23.8914 15.098 23.9947 15.2913 24.1465 15.4431C24.2982 15.5948 24.4916 15.6981 24.702 15.74C24.9125 15.7819 25.1307 15.7604 25.3289 15.6783C25.5272 15.5961 25.6966 15.4571 25.8158 15.2786C25.9351 15.1002 25.9987 14.8904 25.9987 14.6758C26.0001 14.5325 25.973 14.3903 25.9191 14.2575C25.8652 14.1246 25.7855 14.0038 25.6846 13.9019C25.5837 13.8001 25.4636 13.7193 25.3313 13.6641C25.199 13.6089 25.0571 13.5805 24.9137 13.5805V13.5908Z" fill="#22A4E2"/>
<path d="M12.8754 21.403C12.4058 21.403 11.9468 21.2637 11.5564 21.0028C11.166 20.742 10.8617 20.3712 10.682 19.9374C10.5023 19.5036 10.4553 19.0262 10.5469 18.5657C10.6385 18.1052 10.8646 17.6822 11.1966 17.3501C11.5287 17.0181 11.9517 16.792 12.4122 16.7004C12.8727 16.6088 13.3501 16.6558 13.7839 16.8355C14.2177 17.0152 14.5885 17.3195 14.8493 17.7099C15.1102 18.1003 15.2495 18.5593 15.2495 19.0289C15.2488 19.6583 14.9984 20.2618 14.5533 20.7068C14.1083 21.1519 13.5048 21.4023 12.8754 21.403ZM12.8754 17.9439C12.6608 17.9439 12.451 18.0075 12.2726 18.1267C12.0941 18.2459 11.9551 18.4154 11.873 18.6137C11.7908 18.8119 11.7694 19.0301 11.8112 19.2405C11.8531 19.451 11.9564 19.6443 12.1082 19.7961C12.2599 19.9478 12.4532 20.0512 12.6637 20.093C12.8742 20.1349 13.0923 20.1134 13.2906 20.0313C13.4888 19.9492 13.6583 19.8101 13.7775 19.6317C13.8967 19.4532 13.9604 19.2435 13.9604 19.0289C13.9597 18.7413 13.8452 18.4657 13.6418 18.2624C13.4385 18.0591 13.1629 17.9446 12.8754 17.9439Z" fill="#22A4E2"/>
<path d="M17.36 27.7733C16.8904 27.7733 16.4314 27.6341 16.041 27.3732C15.6506 27.1123 15.3463 26.7416 15.1666 26.3078C14.9869 25.8739 14.9399 25.3966 15.0315 24.9361C15.1231 24.4755 15.3492 24.0525 15.6813 23.7205C16.0133 23.3885 16.4363 23.1624 16.8968 23.0708C17.3574 22.9792 17.8347 23.0262 18.2685 23.2059C18.7023 23.3856 19.0731 23.6898 19.334 24.0803C19.5948 24.4707 19.7341 24.9297 19.7341 25.3992C19.7327 26.0285 19.4821 26.6315 19.0372 27.0765C18.5923 27.5214 17.9892 27.772 17.36 27.7733ZM17.36 24.3142C17.1453 24.3137 16.9353 24.3769 16.7565 24.4958C16.5777 24.6147 16.4383 24.784 16.3557 24.9822C16.2732 25.1804 16.2514 25.3987 16.2929 25.6093C16.3345 25.82 16.4376 26.0135 16.5893 26.1655C16.7409 26.3175 16.9342 26.4211 17.1448 26.4632C17.3553 26.5053 17.5736 26.4839 17.772 26.4019C17.9704 26.3198 18.14 26.1808 18.2594 26.0023C18.3787 25.8238 18.4424 25.6139 18.4424 25.3992C18.4417 25.1121 18.3276 24.8369 18.1248 24.6337C17.922 24.4304 17.6471 24.3156 17.36 24.3142Z" fill="#22A4E2"/>
<path d="M31.2041 26.0451H19.5274C19.3561 26.0451 19.1919 25.9771 19.0708 25.8559C18.9496 25.7348 18.8816 25.5706 18.8816 25.3993C18.8816 25.228 18.9496 25.0637 19.0708 24.9426C19.1919 24.8215 19.3561 24.7534 19.5274 24.7534H31.2041C31.3672 24.7537 31.5242 24.6918 31.6433 24.5804L33.5265 22.8495C33.8516 22.5498 34.2778 22.3838 34.72 22.3845H46.5646C46.7359 22.3845 46.9001 22.4526 47.0213 22.5737C47.1424 22.6948 47.2104 22.8591 47.2104 23.0304C47.2104 23.2016 47.1424 23.3659 47.0213 23.487C46.9001 23.6081 46.7359 23.6762 46.5646 23.6762H34.72C34.6015 23.6761 34.4873 23.7204 34.3997 23.8002L32.5164 25.5336C32.159 25.8634 31.6904 26.046 31.2041 26.0451Z" fill="#22A4E2"/>
<path d="M25.8334 31.5168C25.3632 31.5173 24.9034 31.3783 24.5122 31.1175C24.1211 30.8566 23.816 30.4856 23.6358 30.0514C23.4555 29.6172 23.408 29.1392 23.4995 28.678C23.5909 28.2168 23.817 27.7931 24.1493 27.4604C24.4816 27.1278 24.9051 26.9012 25.3662 26.8093C25.8273 26.7174 26.3053 26.7643 26.7397 26.9441C27.1741 27.1239 27.5455 27.4285 27.8067 27.8194C28.068 28.2103 28.2074 28.6699 28.2074 29.1401C28.2068 29.7698 27.9565 30.3735 27.5115 30.819C27.0665 31.2645 26.463 31.5154 25.8334 31.5168ZM25.8334 28.0577C25.6185 28.0572 25.4084 28.1204 25.2296 28.2395C25.0508 28.3585 24.9113 28.5279 24.8289 28.7263C24.7464 28.9246 24.7247 29.143 24.7665 29.3537C24.8083 29.5644 24.9117 29.758 25.0636 29.9099C25.2155 30.0618 25.409 30.1652 25.6197 30.207C25.8304 30.2487 26.0488 30.227 26.2472 30.1446C26.4455 30.0621 26.615 29.9227 26.734 29.7439C26.853 29.565 26.9163 29.3549 26.9158 29.1401C26.9158 28.8528 26.8018 28.5772 26.5989 28.3738C26.396 28.1704 26.1207 28.0558 25.8334 28.0551V28.0577Z" fill="#22A4E2"/>
<path d="M32.5087 29.7832H27.9258V28.4915H32.5087C32.706 28.4909 32.897 28.4215 33.0486 28.2951L35.0558 26.6237C35.4176 26.3038 35.8881 26.1346 36.3708 26.151L41.2016 26.1716C41.8541 26.1731 42.4842 26.4098 42.9763 26.8382L44.6426 28.2822C44.7338 28.3615 44.8499 28.4063 44.9707 28.4088L49.5199 28.4786L49.4993 29.7702L44.95 29.7082C44.5281 29.6979 44.1228 29.5418 43.803 29.2665L42.1368 27.8224C41.8775 27.5966 41.5454 27.4718 41.2016 27.4711L36.3708 27.4504C36.194 27.4543 36.0234 27.516 35.8851 27.6261L33.8778 29.2975C33.4922 29.6143 33.0078 29.7862 32.5087 29.7832Z" fill="#22A4E2"/>
<path d="M97.0249 29.7445L92.0029 29.6567C91.6265 29.6486 91.2557 29.5652 90.9122 29.4112C90.5688 29.2572 90.2597 29.0359 90.0034 28.7603L86.9473 25.4536L87.8928 24.5779L90.9488 27.8845C91.0866 28.0334 91.253 28.1527 91.4382 28.2353C91.6234 28.3179 91.8234 28.362 92.0261 28.365L97.0481 28.4555L97.0249 29.7445Z" fill="#22A4E2"/>
<path d="M108.97 25.469H104.343C103.884 25.4683 103.441 25.3033 103.093 25.004L101.112 23.3042C100.997 23.2059 100.852 23.1518 100.701 23.1518H95.3456C95.1972 23.1509 95.0534 23.2032 94.9401 23.299L93 24.9343C92.5935 25.2787 92.0783 25.4682 91.5455 25.469H77.4354C77.2641 25.469 77.0998 25.401 76.9787 25.2799C76.8576 25.1587 76.7896 24.9945 76.7896 24.8232C76.7896 24.6519 76.8576 24.4876 76.9787 24.3665C77.0998 24.2454 77.2641 24.1774 77.4354 24.1774H91.5507C91.7786 24.1776 91.9992 24.097 92.1733 23.95L94.1056 22.3148C94.4524 22.0217 94.8916 21.8607 95.3456 21.8601H100.701C101.16 21.8609 101.603 22.0258 101.951 22.3251L103.933 24.0275C104.048 24.1235 104.193 24.1765 104.343 24.1774H108.97C109.141 24.1774 109.306 24.2454 109.427 24.3665C109.548 24.4876 109.616 24.6519 109.616 24.8232C109.616 24.9945 109.548 25.1587 109.427 25.2799C109.306 25.401 109.141 25.469 108.97 25.469Z" fill="#22A4E2"/>
<path d="M99.0864 31.5167C98.6168 31.5167 98.1578 31.3775 97.7674 31.1166C97.377 30.8558 97.0727 30.485 96.893 30.0512C96.7133 29.6174 96.6663 29.14 96.7579 28.6795C96.8495 28.219 97.0756 27.7959 97.4076 27.4639C97.7397 27.1319 98.1627 26.9058 98.6232 26.8142C99.0837 26.7226 99.5611 26.7696 99.9949 26.9493C100.429 27.129 100.799 27.4333 101.06 27.8237C101.321 28.2141 101.46 28.6731 101.46 29.1426C101.46 29.7721 101.209 30.3755 100.764 30.8206C100.319 31.2657 99.7158 31.516 99.0864 31.5167ZM99.0864 28.0576C98.8718 28.0576 98.662 28.1213 98.4836 28.2405C98.3052 28.3597 98.1661 28.5292 98.084 28.7274C98.0018 28.9257 97.9803 29.1438 98.0222 29.3543C98.0641 29.5648 98.1674 29.7581 98.3192 29.9099C98.4709 30.0616 98.6642 30.1649 98.8747 30.2068C99.0852 30.2487 99.3033 30.2272 99.5016 30.1451C99.6998 30.0629 99.8693 29.9239 99.9885 29.7454C100.108 29.567 100.171 29.3572 100.171 29.1426C100.168 28.8569 100.052 28.584 99.8492 28.3828C99.6462 28.1817 99.3721 28.0686 99.0864 28.068V28.0576Z" fill="#22A4E2"/>
<path d="M111.125 27.1637C110.655 27.1637 110.196 27.0245 109.806 26.7636C109.415 26.5027 109.111 26.1319 108.931 25.6981C108.752 25.2643 108.705 24.787 108.796 24.3264C108.888 23.8659 109.114 23.4429 109.446 23.1109C109.778 22.7789 110.201 22.5528 110.662 22.4611C111.122 22.3695 111.599 22.4166 112.033 22.5962C112.467 22.7759 112.838 23.0802 113.099 23.4706C113.36 23.8611 113.499 24.3201 113.499 24.7896C113.498 25.419 113.248 26.0225 112.803 26.4676C112.358 26.9127 111.754 27.163 111.125 27.1637ZM111.125 23.7046C110.91 23.7046 110.7 23.7682 110.522 23.8875C110.343 24.0067 110.204 24.1761 110.122 24.3744C110.04 24.5727 110.019 24.7908 110.061 25.0013C110.102 25.2118 110.206 25.4051 110.357 25.5568C110.509 25.7086 110.703 25.8119 110.913 25.8538C111.123 25.8956 111.342 25.8741 111.54 25.792C111.738 25.7099 111.908 25.5708 112.027 25.3924C112.146 25.214 112.21 25.0042 112.21 24.7896C112.21 24.6471 112.182 24.506 112.127 24.3744C112.073 24.2428 111.993 24.1231 111.892 24.0224C111.791 23.9216 111.672 23.8417 111.54 23.7872C111.408 23.7327 111.267 23.7046 111.125 23.7046Z" fill="#22A4E2"/>
<path d="M98.766 17.05C98.2957 17.0505 97.8359 16.9114 97.4447 16.6505C97.0534 16.3895 96.7484 16.0184 96.5682 15.584C96.388 15.1496 96.3407 14.6715 96.4323 14.2103C96.5239 13.749 96.7503 13.3253 97.0829 12.9927C97.4154 12.6602 97.8391 12.4338 98.3004 12.3422C98.7617 12.2506 99.2398 12.2978 99.6741 12.478C100.109 12.6582 100.48 12.9633 100.741 13.3545C101.002 13.7457 101.141 14.2056 101.14 14.6759C101.139 15.3053 100.889 15.9088 100.444 16.3539C99.9989 16.7989 99.3955 17.0493 98.766 17.05ZM98.766 13.5909C98.5514 13.5909 98.3417 13.6545 98.1632 13.7737C97.9848 13.893 97.8457 14.0624 97.7636 14.2607C97.6815 14.4589 97.66 14.6771 97.7019 14.8876C97.7437 15.098 97.8471 15.2913 97.9988 15.4431C98.1506 15.5948 98.3439 15.6982 98.5543 15.74C98.7648 15.7819 98.983 15.7604 99.1812 15.6783C99.3795 15.5962 99.549 15.4571 99.6682 15.2787C99.7874 15.1002 99.851 14.8905 99.851 14.6759C99.851 14.3879 99.7368 14.1116 99.5334 13.9078C99.33 13.7039 99.054 13.589 98.766 13.5883V13.5909Z" fill="#22A4E2"/>
<path d="M83.8189 17.6571L78.9906 17.6364C78.3381 17.635 77.708 17.3983 77.2159 16.9699L75.5496 15.5284C75.4588 15.4482 75.3427 15.4025 75.2215 15.3993L62.9352 15.3244C62.3419 15.3294 61.7633 15.5091 61.2715 15.841L60.7032 16.2466L59.954 15.1926L60.5249 14.787C61.2263 14.2761 62.0754 14.0085 62.943 14.0249L75.2396 14.1024C75.6641 14.1114 76.0723 14.2676 76.3944 14.5442L78.0606 15.9883C78.3199 16.2141 78.6519 16.3389 78.9958 16.3396L83.8266 16.3603C84.005 16.366 84.1788 16.3032 84.3123 16.1846L86.3195 14.5132C86.7025 14.1943 87.1852 14.0197 87.6835 14.0198H97.0481V15.3114H87.6732C87.4759 15.312 87.2849 15.3815 87.1333 15.5078L85.126 17.1792C84.7596 17.4864 84.2971 17.6555 83.8189 17.6571Z" fill="#22A4E2"/>
<path d="M89.6003 23.2965C89.1304 23.298 88.6705 23.16 88.279 22.9C87.8875 22.6399 87.582 22.2695 87.4012 21.8357C87.2204 21.4019 87.1724 20.9242 87.2634 20.4631C87.3543 20.002 87.5801 19.5782 87.912 19.2455C88.244 18.9128 88.6672 18.6862 89.1282 18.5942C89.5891 18.5023 90.0669 18.5492 90.5011 18.7291C90.9353 18.9089 91.3064 19.2136 91.5673 19.6045C91.8282 19.9954 91.9672 20.455 91.9667 20.925C91.9653 21.5526 91.7157 22.1543 91.2724 22.5986C90.8291 23.0429 90.228 23.2938 89.6003 23.2965ZM89.6003 19.8374C89.3854 19.8354 89.1747 19.8972 88.995 20.0151C88.8153 20.1329 88.6746 20.3015 88.5908 20.4994C88.5071 20.6973 88.4839 20.9157 88.5244 21.1267C88.5649 21.3378 88.6672 21.5321 88.8182 21.685C88.9693 21.8379 89.1624 21.9424 89.3729 21.9854C89.5835 22.0284 89.8021 22.0079 90.001 21.9265C90.1999 21.8451 90.3701 21.7064 90.4901 21.5281C90.6101 21.3498 90.6745 21.1399 90.675 20.925C90.675 20.6388 90.5622 20.3641 90.361 20.1605C90.1599 19.9569 89.8865 19.8408 89.6003 19.8374Z" fill="#22A4E2"/>
<path d="M85.2991 31.6718C84.8295 31.6718 84.3705 31.5325 83.9801 31.2716C83.5897 31.0108 83.2854 30.64 83.1057 30.2062C82.926 29.7724 82.879 29.295 82.9706 28.8345C83.0622 28.374 83.2883 27.951 83.6204 27.6189C83.9524 27.2869 84.3754 27.0608 84.8359 26.9692C85.2964 26.8776 85.7738 26.9246 86.2076 27.1043C86.6414 27.284 87.0122 27.5883 87.273 27.9787C87.5339 28.3691 87.6732 28.8281 87.6732 29.2977C87.6725 29.9271 87.4221 30.5306 86.977 30.9756C86.532 31.4207 85.9285 31.6711 85.2991 31.6718ZM85.2991 28.2127C85.0845 28.2127 84.8747 28.2763 84.6963 28.3955C84.5179 28.5147 84.3788 28.6842 84.2967 28.8825C84.2145 29.0807 84.1931 29.2989 84.2349 29.5093C84.2768 29.7198 84.3801 29.9131 84.5319 30.0649C84.6836 30.2166 84.8769 30.32 85.0874 30.3618C85.2979 30.4037 85.516 30.3822 85.7143 30.3001C85.9125 30.218 86.082 30.0789 86.2012 29.9005C86.3204 29.722 86.3841 29.5123 86.3841 29.2977C86.3834 29.0101 86.2689 28.7345 86.0655 28.5312C85.8622 28.3279 85.5866 28.2133 85.2991 28.2127Z" fill="#22A4E2"/>
<path d="M87.42 21.5683H75.2628C75.0916 21.5683 74.9273 21.5002 74.8062 21.3791C74.685 21.258 74.617 21.0937 74.617 20.9224C74.617 20.7512 74.685 20.5869 74.8062 20.4658C74.9273 20.3447 75.0916 20.2766 75.2628 20.2766H87.42C87.5913 20.2766 87.7556 20.3447 87.8767 20.4658C87.9978 20.5869 88.0658 20.7512 88.0658 20.9224C88.0658 21.0937 87.9978 21.258 87.8767 21.3791C87.7556 21.5002 87.5913 21.5683 87.42 21.5683Z" fill="#22A4E2"/>
<path d="M76.9472 29.7988C76.7759 29.7988 76.6116 29.7308 76.4905 29.6096C76.3694 29.4885 76.3013 29.3242 76.3013 29.153C76.3013 28.9817 76.3694 28.8174 76.4905 28.6963C76.6116 28.5752 76.7759 28.5071 76.9472 28.5071L83.1239 28.4529C83.2952 28.4529 83.4595 28.5209 83.5806 28.642C83.7017 28.7632 83.7698 28.9274 83.7698 29.0987C83.7698 29.27 83.7017 29.4343 83.5806 29.5554C83.4595 29.6765 83.2952 29.7445 83.1239 29.7445L76.9446 29.7988H76.9472Z" fill="#22A4E2"/>
<path d="M38.75 17.1457C38.2798 17.1462 37.82 17.0072 37.4289 16.7464C37.0377 16.4855 36.7327 16.1145 36.5524 15.6803C36.3721 15.2461 36.3247 14.7681 36.4161 14.3069C36.5075 13.8457 36.7336 13.422 37.0659 13.0894C37.3982 12.7567 37.8217 12.5301 38.2828 12.4382C38.7439 12.3463 39.2219 12.3932 39.6563 12.573C40.0907 12.7528 40.4621 13.0574 40.7233 13.4483C40.9846 13.8392 41.1241 14.2988 41.1241 14.769C41.1234 15.3987 40.8731 16.0024 40.4281 16.4479C39.9831 16.8934 39.3797 17.1443 38.75 17.1457ZM38.75 13.684C38.5353 13.6835 38.3252 13.7467 38.1465 13.8656C37.9677 13.9845 37.8282 14.1538 37.7457 14.352C37.6632 14.5502 37.6414 14.7684 37.6829 14.9791C37.7245 15.1897 37.8276 15.3833 37.9793 15.5353C38.1309 15.6873 38.3242 15.7909 38.5348 15.833C38.7453 15.875 38.9636 15.8537 39.162 15.7717C39.3604 15.6896 39.53 15.5505 39.6494 15.3721C39.7687 15.1936 39.8324 14.9837 39.8324 14.769C39.8297 14.4832 39.7146 14.21 39.5121 14.0084C39.3095 13.8069 39.0357 13.6931 38.75 13.6917V13.684Z" fill="#22A4E2"/>
<path d="M62.6226 24.676C62.5082 24.676 62.3941 24.6656 62.2816 24.645C61.0261 24.428 57.4275 20.9973 57.3939 20.9637L58.3058 20.0518C59.1583 20.8965 61.8967 23.25 62.5167 23.3765C62.8602 23.4334 63.2917 23.2319 63.7076 22.8289C64.0521 22.4811 64.2454 22.0113 64.2454 21.5217C64.2454 21.0321 64.0521 20.5624 63.7076 20.2145L59.9617 16.7658C59.3016 16.1599 58.4556 15.7957 57.5618 15.7325L53.0307 15.4147H40.9174V14.123H53.0746L57.6522 14.4408C58.8395 14.5248 59.9629 15.0104 60.8375 15.8177L64.5833 19.2845C65.1756 19.8735 65.5103 20.6732 65.5142 21.5084C65.5181 22.3436 65.1908 23.1464 64.604 23.7408C64.092 24.3007 63.3802 24.6366 62.6226 24.676Z" fill="#22A4E2"/>
<path d="M72.4858 36.8125C72.1432 36.8142 71.8036 36.7476 71.487 36.6168C71.1703 36.486 70.8828 36.2934 70.6413 36.0504L65.2395 30.6487C64.9975 30.4061 64.8056 30.1183 64.6748 29.8015C64.544 29.4848 64.4768 29.1454 64.4772 28.8027C64.4775 28.4601 64.5454 28.1208 64.6769 27.8044C64.8083 27.4879 65.0008 27.2004 65.2434 26.9584C65.486 26.7163 65.7738 26.5244 66.0905 26.3936C66.4073 26.2628 66.7467 26.1957 67.0893 26.196C67.432 26.1964 67.7713 26.2643 68.0877 26.3957C68.4042 26.5272 68.6916 26.7197 68.9337 26.9623L74.3303 32.3537C74.5736 32.5961 74.7666 32.8841 74.8984 33.2013C75.0301 33.5185 75.0979 33.8586 75.0979 34.2021C75.0979 34.5455 75.0301 34.8856 74.8984 35.2028C74.7666 35.52 74.5736 35.808 74.3303 36.0504C73.8406 36.5386 73.1772 36.8127 72.4858 36.8125ZM67.084 27.4789C66.735 27.4801 66.4006 27.6194 66.154 27.8664C66.0309 27.9891 65.9332 28.1348 65.8666 28.2953C65.8 28.4558 65.7656 28.6278 65.7656 28.8016C65.7656 28.9754 65.8 29.1474 65.8666 29.3079C65.9332 29.4684 66.0309 29.6141 66.154 29.7368L71.5584 35.1333C71.8101 35.3732 72.1445 35.5071 72.4922 35.5071C72.84 35.5071 73.1744 35.3732 73.4261 35.1333C73.5492 35.0107 73.6469 34.865 73.7135 34.7045C73.7802 34.544 73.8145 34.372 73.8145 34.1982C73.8145 34.0244 73.7802 33.8524 73.7135 33.6919C73.6469 33.5314 73.5492 33.3857 73.4261 33.263L68.0244 27.869C67.9016 27.7445 67.7551 27.6459 67.5936 27.5789C67.4321 27.5119 67.2589 27.4779 67.084 27.4789Z" fill="#22A4E2"/>
<path d="M75.4772 33.6014C75.1346 33.6031 74.7951 33.5365 74.4784 33.4057C74.1618 33.2748 73.8743 33.0823 73.6327 32.8393L68.231 27.4376C67.9886 27.1952 67.7963 26.9074 67.6651 26.5907C67.5339 26.274 67.4664 25.9346 67.4664 25.5918C67.4664 25.249 67.5339 24.9096 67.6651 24.5929C67.7963 24.2761 67.9886 23.9884 68.231 23.746C68.4734 23.5036 68.7611 23.3113 69.0778 23.1801C69.3945 23.049 69.734 22.9814 70.0768 22.9814C70.4196 22.9814 70.759 23.049 71.0757 23.1801C71.3924 23.3113 71.6802 23.5036 71.9226 23.746L77.3243 29.1477C77.6892 29.5128 77.9376 29.9779 78.0381 30.4841C78.1386 30.9904 78.0867 31.515 77.889 31.9918C77.6913 32.4686 77.3566 32.876 76.9273 33.1625C76.498 33.449 75.9934 33.6017 75.4772 33.6014ZM70.0781 24.2833C69.817 24.2832 69.5617 24.3604 69.3446 24.5053C69.1274 24.6502 68.9581 24.8562 68.858 25.0973C68.7579 25.3384 68.7315 25.6038 68.7823 25.8598C68.833 26.1159 68.9585 26.3512 69.1429 26.536L74.5446 31.9377C74.6673 32.0604 74.8129 32.1577 74.9731 32.224C75.1333 32.2904 75.3051 32.3246 75.4785 32.3246C75.652 32.3246 75.8237 32.2904 75.9839 32.224C76.1442 32.1577 76.2898 32.0604 76.4124 31.9377C76.535 31.8151 76.6323 31.6695 76.6987 31.5093C76.7651 31.349 76.7992 31.1773 76.7992 31.0039C76.7992 30.8304 76.7651 30.6587 76.6987 30.4985C76.6323 30.3382 76.535 30.1926 76.4124 30.07L71.0106 24.6682C70.8885 24.5454 70.7432 24.4481 70.5831 24.382C70.4229 24.3159 70.2513 24.2824 70.0781 24.2833Z" fill="#22A4E2"/>
<path d="M50.5455 33.3922C50.2095 33.3918 49.8768 33.3252 49.5665 33.1962C49.2563 33.0672 48.9744 32.8784 48.7372 32.6404C48.2576 32.1566 47.9885 31.503 47.9885 30.8217C47.9885 30.1405 48.2576 29.4869 48.7372 29.0031L57.3913 20.057C57.5109 19.9356 57.6736 19.8663 57.844 19.8643C58.0144 19.8623 58.1787 19.9278 58.3011 20.0464C58.4235 20.165 58.494 20.3272 58.4973 20.4975C58.5006 20.6679 58.4364 20.8327 58.3188 20.956L49.6543 29.9098C49.4159 30.1496 49.281 30.4733 49.2786 30.8114C49.2761 31.1495 49.4064 31.475 49.6413 31.7182C49.8828 31.9548 50.2074 32.0874 50.5455 32.0874C50.8836 32.0874 51.2082 31.9548 51.4497 31.7182L52.7672 30.4007C52.8902 30.2907 53.0507 30.232 53.2157 30.2366C53.3806 30.2412 53.5376 30.3088 53.6543 30.4255C53.771 30.5422 53.8386 30.6991 53.8432 30.8641C53.8478 31.0291 53.7891 31.1895 53.6791 31.3126L52.3616 32.6301C52.124 32.8705 51.8413 33.0616 51.5296 33.1924C51.2179 33.3231 50.8835 33.391 50.5455 33.3922Z" fill="#22A4E2"/>
<path d="M53.289 36.0425C52.6083 36.0391 51.9565 35.7672 51.4752 35.2859C50.9939 34.8046 50.722 34.1528 50.7186 33.4721C50.7179 33.1354 50.7845 32.8021 50.9145 32.4915C51.0445 32.181 51.2352 31.8995 51.4755 31.6638L52.7439 30.3902C52.8645 30.2692 53.0282 30.2012 53.199 30.2009C53.3697 30.2007 53.5336 30.2683 53.6545 30.3889C53.7755 30.5095 53.8435 30.6731 53.8438 30.8439C53.844 31.0147 53.7764 31.1786 53.6558 31.2995L52.3848 32.5757C52.1482 32.8171 52.0156 33.1417 52.0156 33.4798C52.0156 33.8179 52.1482 34.1426 52.3848 34.384C52.6263 34.6207 52.9509 34.7532 53.289 34.7532C53.6271 34.7532 53.9517 34.6207 54.1932 34.384L55.5081 33.0665C55.6311 32.9565 55.7916 32.8978 55.9566 32.9024C56.1215 32.907 56.2785 32.9746 56.3952 33.0913C56.5119 33.208 56.5795 33.365 56.5841 33.5299C56.5887 33.6949 56.53 33.8554 56.42 33.9784L55.1051 35.2959C54.8662 35.5335 54.5829 35.7218 54.2713 35.8499C53.9597 35.978 53.6259 36.0434 53.289 36.0425Z" fill="#22A4E2"/>
<path d="M56.0583 38.7809C55.7223 38.7805 55.3897 38.7139 55.0794 38.5849C54.7691 38.4559 54.4873 38.2671 54.25 38.0291C54.0104 37.7907 53.8202 37.5073 53.6905 37.1952C53.5607 36.8831 53.4939 36.5485 53.4939 36.2105C53.4939 35.8724 53.5607 35.5378 53.6905 35.2257C53.8202 34.9136 54.0104 34.6302 54.25 34.3918L55.5184 33.1182C55.5781 33.0583 55.6491 33.0108 55.7271 32.9783C55.8052 32.9459 55.8889 32.9291 55.9735 32.929C56.058 32.9288 56.1418 32.9454 56.22 32.9776C56.2981 33.0099 56.3692 33.0572 56.4291 33.1169C56.4889 33.1766 56.5365 33.2475 56.5689 33.3256C56.6014 33.4037 56.6182 33.4874 56.6183 33.572C56.6184 33.6565 56.6019 33.7403 56.5696 33.8184C56.5374 33.8966 56.4901 33.9677 56.4303 34.0275L55.1594 35.3063C54.9227 35.5477 54.7901 35.8724 54.7901 36.2105C54.7901 36.5486 54.9227 36.8732 55.1594 37.1146C55.4008 37.3513 55.7254 37.4838 56.0635 37.4838C56.4016 37.4838 56.7262 37.3513 56.9677 37.1146L58.2826 35.7971C58.4056 35.6871 58.5661 35.6284 58.7311 35.633C58.8961 35.6377 59.053 35.7052 59.1697 35.8219C59.2864 35.9386 59.354 36.0956 59.3586 36.2605C59.3632 36.4255 59.3045 36.586 59.1945 36.709L57.8796 38.0265C57.6408 38.2662 57.3569 38.4562 57.0443 38.5856C56.7318 38.7151 56.3967 38.7814 56.0583 38.7809Z" fill="#22A4E2"/>
<path d="M58.8147 41.4754C58.1363 41.4738 57.486 41.2035 57.0064 40.7236C56.526 40.2397 56.2565 39.5855 56.2565 38.9036C56.2565 38.2218 56.526 37.5676 57.0064 37.0837L58.2722 35.8127C58.3306 35.747 58.4018 35.694 58.4813 35.6568C58.5609 35.6195 58.6472 35.599 58.735 35.5963C58.8229 35.5935 58.9103 35.6088 58.992 35.641C59.0737 35.6733 59.148 35.7219 59.2103 35.7838C59.2726 35.8458 59.3216 35.9198 59.3543 36.0013C59.387 36.0828 59.4028 36.1702 59.4006 36.258C59.3983 36.3458 59.3783 36.4323 59.3415 36.512C59.3047 36.5918 59.2521 36.6633 59.1867 36.722L57.9157 37.9982C57.676 38.238 57.5412 38.5632 57.5412 38.9024C57.5412 39.2415 57.676 39.5667 57.9157 39.8065C58.1572 40.0432 58.4818 40.1758 58.8199 40.1758C59.158 40.1758 59.4826 40.0432 59.7241 39.8065L61.0416 38.489C61.1001 38.4235 61.1714 38.3707 61.2511 38.3337C61.3308 38.2967 61.4172 38.2763 61.505 38.2739C61.5928 38.2714 61.6802 38.2869 61.7619 38.3194C61.8435 38.3519 61.9176 38.4006 61.9797 38.4628C62.0419 38.5249 62.0907 38.599 62.1231 38.6807C62.1556 38.7623 62.1711 38.8497 62.1687 38.9375C62.1662 39.0253 62.1458 39.1117 62.1088 39.1914C62.0718 39.2711 62.019 39.3424 61.9535 39.4009L60.636 40.7184C60.3976 40.9589 60.1139 41.1496 59.8013 41.2795C59.4886 41.4095 59.1533 41.476 58.8147 41.4754Z" fill="#22A4E2"/>
<path d="M69.595 39.4863C69.2515 39.4863 68.9114 39.4177 68.5947 39.2846C68.278 39.1516 67.991 38.9567 67.7505 38.7113L62.2894 33.245C61.8282 32.7498 61.5766 32.0954 61.5872 31.4188C61.5978 30.7422 61.8698 30.0959 62.3462 29.6154C62.8403 29.1335 63.5031 28.8638 64.1933 28.8638C64.8835 28.8638 65.5463 29.1335 66.0404 29.6154L71.4395 35.0172C71.8048 35.3823 72.0536 35.8475 72.1545 36.3539C72.2554 36.8604 72.2039 37.3854 72.0065 37.8626C71.809 38.3398 71.4746 38.7478 71.0454 39.035C70.6162 39.3221 70.1115 39.4756 69.595 39.476V39.4863ZM64.1933 30.1527C63.9409 30.1524 63.6939 30.2261 63.4829 30.3646C63.4028 30.4141 63.3283 30.4721 63.2607 30.5377C63.0208 30.7787 62.8828 31.1027 62.8751 31.4426C62.8674 31.7826 62.9906 32.1125 63.2194 32.3641L63.5113 32.6612L68.6625 37.8097C68.9136 38.0487 69.2471 38.182 69.5938 38.182C69.9404 38.182 70.2739 38.0487 70.525 37.8097C70.6488 37.6875 70.747 37.5418 70.814 37.3813C70.8811 37.2208 70.9156 37.0485 70.9156 36.8746C70.9156 36.7006 70.8811 36.5284 70.814 36.3679C70.747 36.2073 70.6488 36.0617 70.525 35.9394L65.1259 30.5377C64.8782 30.2909 64.5429 30.1525 64.1933 30.1527Z" fill="#22A4E2"/>
<path d="M66.3684 42.713C66.0249 42.7129 65.6848 42.6444 65.3681 42.5113C65.0514 42.3782 64.7644 42.1833 64.5239 41.938L59.0628 36.4717C58.6013 35.9764 58.3497 35.3217 58.3608 34.6449C58.3719 33.9681 58.6448 33.3219 59.1222 32.8421C59.2518 32.7118 59.3956 32.5966 59.551 32.4985C60.0545 32.1817 60.6497 32.0431 61.2413 32.105C61.8329 32.1668 62.3867 32.4255 62.8138 32.8395L68.2155 38.2412C68.7044 38.7322 68.9789 39.3968 68.9789 40.0896C68.9789 40.7824 68.7044 41.4471 68.2155 41.938C67.9747 42.1836 67.6873 42.3787 67.3701 42.5118C67.053 42.6449 66.7124 42.7133 66.3684 42.713ZM60.9667 33.3768C60.7105 33.3775 60.4601 33.4525 60.2458 33.5927C60.0315 33.733 59.8625 33.9324 59.7594 34.1669C59.6562 34.4013 59.6234 34.6607 59.6648 34.9134C59.7062 35.1662 59.8202 35.4015 59.9928 35.5907L60.0393 35.6398L65.4358 41.0364C65.6873 41.2748 66.0206 41.4077 66.3671 41.4077C66.7136 41.4077 67.047 41.2748 67.2984 41.0364C67.5453 40.7873 67.6838 40.4507 67.6838 40.1C67.6838 39.7492 67.5453 39.4126 67.2984 39.1635L61.8967 33.7643C61.7749 33.6415 61.63 33.5441 61.4704 33.4776C61.3108 33.4111 61.1396 33.3768 60.9667 33.3768Z" fill="#22A4E2"/>
</g>
<defs>
<clipPath id="clip0_1_475">
<rect width="124" height="124" fill="white"/>
</clipPath>
</defs>
</svg>
