<svg width="60" height="60" viewBox="0 0 60 60" fill="none" xmlns="http://www.w3.org/2000/svg">
<circle cx="30" cy="30" r="29.5" stroke="white"/>
<path d="M25.5566 30.0001C25.5566 27.5456 27.5459 25.5553 30.0005 25.5553C32.4551 25.5553 34.4455 27.5456 34.4455 30.0001C34.4455 32.4546 32.4551 34.4449 30.0005 34.4449C27.5459 34.4449 25.5566 32.4546 25.5566 30.0001ZM23.1537 30.0001C23.1537 33.7814 26.219 36.8466 30.0005 36.8466C33.782 36.8466 36.8473 33.7814 36.8473 30.0001C36.8473 26.2187 33.782 23.1536 30.0005 23.1536C26.219 23.1536 23.1537 26.2187 23.1537 30.0001ZM35.5183 22.8821C35.5182 23.1986 35.6119 23.5079 35.7876 23.7711C35.9633 24.0343 36.2131 24.2395 36.5054 24.3607C36.7978 24.4819 37.1195 24.5137 37.4299 24.4521C37.7403 24.3905 38.0255 24.2382 38.2493 24.0146C38.4732 23.7909 38.6257 23.5059 38.6875 23.1955C38.7494 22.8852 38.7179 22.5635 38.5969 22.271C38.4759 21.9786 38.2709 21.7287 38.0078 21.5528C37.7448 21.3768 37.4355 21.2829 37.119 21.2827H37.1184C36.6942 21.2829 36.2874 21.4515 35.9874 21.7514C35.6874 22.0512 35.5187 22.4579 35.5183 22.8821ZM24.6136 40.8531C23.3136 40.7939 22.6071 40.5774 22.1375 40.3944C21.515 40.1521 21.0708 39.8634 20.6038 39.3971C20.1368 38.9307 19.8477 38.487 19.6064 37.8645C19.4234 37.3952 19.2068 36.6884 19.1477 35.3885C19.0831 33.983 19.0702 33.5608 19.0702 30.0002C19.0702 26.4395 19.0841 26.0185 19.1477 24.6119C19.2069 23.312 19.4251 22.6066 19.6064 22.1359C19.8488 21.5134 20.1374 21.0692 20.6038 20.6022C21.0701 20.1352 21.5139 19.8462 22.1375 19.6049C22.6068 19.4218 23.3136 19.2053 24.6136 19.1462C26.0191 19.0816 26.4413 19.0687 30.0005 19.0687C33.5597 19.0687 33.9823 19.0826 35.389 19.1462C36.689 19.2054 37.3944 19.4235 37.8652 19.6049C38.4877 19.8462 38.9319 20.1359 39.3989 20.6022C39.8659 21.0686 40.1539 21.5134 40.3962 22.1359C40.5793 22.6052 40.7958 23.312 40.8549 24.6119C40.9196 26.0185 40.9325 26.4395 40.9325 30.0002C40.9325 33.5608 40.9196 33.9818 40.8549 35.3885C40.7957 36.6884 40.5781 37.395 40.3962 37.8645C40.1539 38.487 39.8652 38.9312 39.3989 39.3971C38.9325 39.863 38.4877 40.1521 37.8652 40.3944C37.3958 40.5775 36.689 40.794 35.389 40.8531C33.9835 40.9177 33.5613 40.9306 30.0005 40.9306C26.4397 40.9306 26.0187 40.9177 24.6136 40.8531ZM24.5032 16.7475C23.0838 16.8121 22.1138 17.0372 21.2667 17.3668C20.3895 17.7072 19.6468 18.1638 18.9047 18.9047C18.1626 19.6456 17.7071 20.3894 17.3667 21.2666C17.0371 22.1142 16.812 23.0836 16.7474 24.503C16.6817 25.9247 16.6667 26.3792 16.6667 30.0001C16.6667 33.621 16.6817 34.0755 16.7474 35.4971C16.812 36.9167 17.0371 37.8859 17.3667 38.7335C17.7071 39.6102 18.1627 40.3549 18.9047 41.0954C19.6467 41.836 20.3895 42.292 21.2667 42.6334C22.1154 42.963 23.0838 43.188 24.5032 43.2527C25.9257 43.3173 26.3795 43.3334 30.0005 43.3334C33.6216 43.3334 34.0761 43.3184 35.4978 43.2527C36.9174 43.188 37.8867 42.963 38.7343 42.6334C39.611 42.292 40.3542 41.8363 41.0963 41.0954C41.8384 40.3545 42.293 39.6102 42.6343 38.7335C42.9639 37.8859 43.1901 36.9166 43.2536 35.4971C43.3183 34.0744 43.3333 33.621 43.3333 30.0001C43.3333 26.3792 43.3183 25.9247 43.2536 24.503C43.189 23.0835 42.9639 22.1137 42.6343 21.2666C42.293 20.3899 41.8373 19.6468 41.0963 18.9047C40.3554 18.1626 39.611 17.7072 38.7354 17.3668C37.8867 17.0372 36.9173 16.8111 35.4989 16.7475C34.0772 16.6829 33.6226 16.6667 30.0016 16.6667C26.3805 16.6667 25.9257 16.6818 24.5032 16.7475Z" fill="white"/>
</svg>
