<svg width="60" height="60" viewBox="0 0 60 60" fill="none" xmlns="http://www.w3.org/2000/svg">
<circle cx="30" cy="30" r="30" fill="#22A4E2"/>
<path d="M17.6354 29.8404C24.8891 26.6291 29.7261 24.512 32.1462 23.4891C39.0563 20.5686 40.4922 20.0613 41.4281 20.0444C41.6339 20.0408 42.0941 20.0927 42.3922 20.3385C42.644 20.546 42.7132 20.8264 42.7464 21.0232C42.7795 21.22 42.8208 21.6683 42.788 22.0185C42.4135 26.0165 40.7932 35.7185 39.9689 40.1963C39.6201 42.091 38.9333 42.7263 38.2685 42.7885C36.8235 42.9236 35.7262 41.8181 34.3267 40.8859C32.1368 39.4272 30.8996 38.5192 28.7738 37.0957C26.3172 35.4507 27.9097 34.5466 29.3098 33.069C29.6762 32.6823 36.0427 26.798 36.1659 26.2642C36.1813 26.1974 36.1956 25.9486 36.0501 25.8172C35.9047 25.6858 35.6899 25.7307 35.535 25.7664C35.3153 25.8171 31.8168 28.1668 25.0395 32.8155C24.0464 33.5084 23.147 33.846 22.3411 33.8283C21.4526 33.8088 19.7437 33.3179 18.4732 32.8982C16.9149 32.3835 15.6765 32.1114 15.7843 31.2373C15.8405 30.782 16.4575 30.3164 17.6354 29.8404Z" fill="white"/>
</svg>
