<svg width="27" height="27" viewBox="0 0 27 27" fill="none" xmlns="http://www.w3.org/2000/svg">
<path d="M24.9779 4.6543H2.0221C0.905291 4.6543 0 5.55959 0 6.6764V20.3219C0 21.4386 0.905291 22.344 2.0221 22.344H24.9779C26.0947 22.344 27 21.4387 27 20.3219V6.6764C27 5.55959 26.0947 4.6543 24.9779 4.6543Z" fill="#41479B"/>
<path d="M26.972 6.34217C26.8126 5.38456 25.9807 4.6543 24.9779 4.6543H24.4518L15.8276 10.3046V4.65435H11.1724V10.3047L2.54823 4.65435H2.0221C1.01925 4.65435 0.187365 5.38456 0.028002 6.34222L7.39911 11.1716H0V15.8268H7.39911L0.028002 20.6561C0.187365 21.6137 1.01925 22.344 2.0221 22.344H2.54823L11.1724 16.6937V22.344H15.8276V16.6937L24.4518 22.344H24.9779C25.9807 22.344 26.8126 21.6138 26.972 20.6561L19.6009 15.8267H27V11.1715H19.6009L26.972 6.34217Z" fill="#F5F5F5"/>
<path d="M14.8966 4.6543H12.1034V12.1026H0V14.8957H12.1034V22.3439H14.8966V14.8957H27V12.1026H14.8966V4.6543Z" fill="#FF4B55"/>
<path d="M1.30735 22.213L11.1467 15.8262H9.43662L0.486328 21.636C0.705334 21.8916 0.986777 22.0919 1.30735 22.213Z" fill="#FF4B55"/>
<path d="M18.2667 15.8262H16.5566L26.0866 22.0122C26.3533 21.837 26.5758 21.6005 26.7345 21.3227L18.2667 15.8262Z" fill="#FF4B55"/>
<path d="M0.213379 5.77166L8.53117 11.171H10.2412L0.815922 5.05273C0.56285 5.2411 0.355762 5.48737 0.213379 5.77166Z" fill="#FF4B55"/>
<path d="M17.5377 11.1706L26.5044 5.35004C26.283 5.09528 25.9993 4.89615 25.6765 4.77734L15.8276 11.1706H17.5377Z" fill="#FF4B55"/>
</svg>
