<svg width="27" height="27" viewBox="0 0 27 27" fill="none" xmlns="http://www.w3.org/2000/svg">
<path d="M24.9779 4.6543H2.0221C0.905291 4.6543 0 5.55959 0 6.6764V10.0271H27V6.6764C27 5.55959 26.0947 4.6543 24.9779 4.6543Z" fill="#82AFFF"/>
<path d="M0 20.3233C0 21.4401 0.905291 22.3454 2.0221 22.3454H24.9779C26.0947 22.3454 27 21.4402 27 20.3233V16.9727H0V20.3233Z" fill="#73AF00"/>
<path d="M27 10.7637H0V16.237H27V10.7637Z" fill="#F5F5F5"/>
<path d="M0 10.5512V10.7626H27V10.5512V10.0273H0V10.5512Z" fill="#FF4B55"/>
<path d="M0 16.4478V16.9716H27V16.4478V16.2363H0V16.4478Z" fill="#FF4B55"/>
<path d="M5.98477 9.0747C5.03176 9.0747 4.25925 8.30404 4.25925 7.35445C4.25925 6.40138 5.03171 5.62724 5.98477 5.62724C5.98847 5.62724 5.99205 5.62724 5.99564 5.6273C6.05175 5.62803 6.07142 5.55352 6.02195 5.527C5.72848 5.36969 5.39357 5.28067 5.03751 5.28326C3.89718 5.29138 2.9709 6.23633 2.98303 7.37665C2.99495 8.50522 3.91759 9.41874 5.05243 9.41874C5.40359 9.41874 5.73381 9.32988 6.02364 9.17474C6.07295 9.14832 6.05301 9.0738 5.99711 9.0746C5.99289 9.0747 5.98883 9.0747 5.98477 9.0747Z" fill="#F5F5F5"/>
<path d="M7.33617 8.5986L7.25912 8.82968L7.01554 8.83152C6.98401 8.83174 6.97093 8.87202 6.99629 8.89075L7.19225 9.03545L7.11874 9.26769C7.10925 9.29775 7.14347 9.32264 7.16916 9.30429L7.36733 9.16264L7.56551 9.30429C7.59119 9.32264 7.62536 9.29775 7.61592 9.26769L7.54241 9.03545L7.73832 8.89075C7.76368 8.87202 7.7506 8.83174 7.71907 8.83152L7.47549 8.82968L7.39844 8.5986C7.38848 8.5687 7.34618 8.5687 7.33617 8.5986Z" fill="#F5F5F5"/>
<path d="M9.05199 8.5986L8.97494 8.82968L8.73136 8.83152C8.69983 8.83174 8.68675 8.87202 8.71211 8.89075L8.90802 9.03545L8.83451 9.26769C8.82502 9.29775 8.85924 9.32264 8.88492 9.30429L9.0831 9.16264L9.28127 9.30429C9.30696 9.32264 9.34113 9.29775 9.33169 9.26769L9.25818 9.03545L9.45409 8.89075C9.47945 8.87202 9.46637 8.83174 9.43484 8.83152L9.19126 8.82968L9.11421 8.5986C9.10425 8.5687 9.0619 8.5687 9.05199 8.5986Z" fill="#F5F5F5"/>
<path d="M10.7683 8.5986L10.6912 8.82968L10.4477 8.83152C10.4161 8.83174 10.4031 8.87202 10.4284 8.89075L10.6244 9.03545L10.5509 9.26769C10.5414 9.29775 10.5756 9.32264 10.6013 9.30429L10.7995 9.16264L10.9976 9.30429C11.0233 9.32264 11.0575 9.29775 11.0481 9.26769L10.9745 9.03545L11.1704 8.89075C11.1958 8.87202 11.1827 8.83174 11.1512 8.83152L10.9076 8.82968L10.8306 8.5986C10.8206 8.5687 10.7783 8.5687 10.7683 8.5986Z" fill="#F5F5F5"/>
<path d="M12.4841 8.5986L12.4071 8.82968L12.1635 8.83152C12.132 8.83174 12.1189 8.87202 12.1442 8.89075L12.3401 9.03545L12.2666 9.26769C12.2571 9.29775 12.2914 9.32264 12.3171 9.30429L12.5152 9.16264L12.7134 9.30429C12.7391 9.32264 12.7733 9.29775 12.7638 9.26769L12.6903 9.03545L12.8862 8.89075C12.9116 8.87202 12.8985 8.83174 12.867 8.83152L12.6234 8.82968L12.5463 8.5986C12.5364 8.5687 12.4941 8.5687 12.4841 8.5986Z" fill="#F5F5F5"/>
<path d="M14.2004 8.5986L14.1234 8.82968L13.8798 8.83152C13.8483 8.83174 13.8352 8.87202 13.8606 8.89075L14.0565 9.03545L13.983 9.26769C13.9735 9.29775 14.0077 9.32264 14.0334 9.30429L14.2316 9.16264L14.4298 9.30429C14.4554 9.32264 14.4896 9.29775 14.4802 9.26769L14.4067 9.03545L14.6026 8.89075C14.628 8.87202 14.6149 8.83174 14.5834 8.83152L14.3398 8.82968L14.2628 8.5986C14.2527 8.5687 14.2104 8.5687 14.2004 8.5986Z" fill="#F5F5F5"/>
<path d="M9.05199 6.99711L8.97494 7.2282L8.73136 7.23004C8.69983 7.23025 8.68675 7.27054 8.71211 7.28926L8.90802 7.43397L8.83451 7.66621C8.82502 7.69627 8.85924 7.72116 8.88492 7.70281L9.0831 7.56116L9.28127 7.70281C9.30696 7.72116 9.34113 7.69627 9.33169 7.66621L9.25818 7.43397L9.45409 7.28926C9.47945 7.27054 9.46637 7.23025 9.43484 7.23004L9.19126 7.2282L9.11421 6.99711C9.10425 6.96711 9.0619 6.96711 9.05199 6.99711Z" fill="#F5F5F5"/>
<path d="M10.7683 6.99711L10.6912 7.2282L10.4477 7.23004C10.4161 7.23025 10.4031 7.27054 10.4284 7.28926L10.6244 7.43397L10.5509 7.66621C10.5414 7.69627 10.5756 7.72116 10.6013 7.70281L10.7995 7.56116L10.9976 7.70281C11.0233 7.72116 11.0575 7.69627 11.0481 7.66621L10.9745 7.43397L11.1704 7.28926C11.1958 7.27054 11.1827 7.23025 11.1512 7.23004L10.9076 7.2282L10.8306 6.99711C10.8206 6.96711 10.7783 6.96711 10.7683 6.99711Z" fill="#F5F5F5"/>
<path d="M12.4841 6.99711L12.4071 7.2282L12.1635 7.23004C12.132 7.23025 12.1189 7.27054 12.1442 7.28926L12.3401 7.43397L12.2666 7.66621C12.2571 7.69627 12.2914 7.72116 12.3171 7.70281L12.5152 7.56116L12.7134 7.70281C12.7391 7.72116 12.7733 7.69627 12.7638 7.66621L12.6903 7.43397L12.8862 7.28926C12.9116 7.27054 12.8985 7.23025 12.867 7.23004L12.6234 7.2282L12.5463 6.99711C12.5364 6.96711 12.4941 6.96711 12.4841 6.99711Z" fill="#F5F5F5"/>
<path d="M14.2004 6.99711L14.1234 7.2282L13.8798 7.23004C13.8483 7.23025 13.8352 7.27054 13.8606 7.28926L14.0565 7.43397L13.983 7.66621C13.9735 7.69627 14.0077 7.72116 14.0334 7.70281L14.2316 7.56116L14.4298 7.70281C14.4554 7.72116 14.4896 7.69627 14.4802 7.66621L14.4067 7.43397L14.6026 7.28926C14.628 7.27054 14.6149 7.23025 14.5834 7.23004L14.3398 7.2282L14.2628 6.99711C14.2527 6.96711 14.2104 6.96711 14.2004 6.99711Z" fill="#F5F5F5"/>
<path d="M10.7683 8.5986L10.6912 8.82968L10.4477 8.83152C10.4161 8.83174 10.4031 8.87202 10.4284 8.89075L10.6244 9.03545L10.5509 9.26769C10.5414 9.29775 10.5756 9.32264 10.6013 9.30429L10.7995 9.16264L10.9976 9.30429C11.0233 9.32264 11.0575 9.29775 11.0481 9.26769L10.9745 9.03545L11.1704 8.89075C11.1958 8.87202 11.1827 8.83174 11.1512 8.83152L10.9076 8.82968L10.8306 8.5986C10.8206 8.5687 10.7783 8.5687 10.7683 8.5986Z" fill="#F5F5F5"/>
<path d="M10.7683 5.39547L10.6912 5.62655L10.4477 5.6284C10.4161 5.62861 10.4031 5.6689 10.4284 5.68762L10.6244 5.83232L10.5509 6.06457C10.5414 6.09462 10.5756 6.11951 10.6013 6.10116L10.7995 5.95952L10.9976 6.10116C11.0233 6.11951 11.0575 6.09462 11.0481 6.06457L10.9745 5.83232L11.1704 5.68762C11.1958 5.6689 11.1827 5.62861 11.1512 5.6284L10.9076 5.62655L10.8306 5.39547C10.8206 5.36557 10.7783 5.36557 10.7683 5.39547Z" fill="#F5F5F5"/>
<path d="M12.4841 8.5986L12.4071 8.82968L12.1635 8.83152C12.132 8.83174 12.1189 8.87202 12.1442 8.89075L12.3401 9.03545L12.2666 9.26769C12.2571 9.29775 12.2914 9.32264 12.3171 9.30429L12.5152 9.16264L12.7134 9.30429C12.7391 9.32264 12.7733 9.29775 12.7638 9.26769L12.6903 9.03545L12.8862 8.89075C12.9116 8.87202 12.8985 8.83174 12.867 8.83152L12.6234 8.82968L12.5463 8.5986C12.5364 8.5687 12.4941 8.5687 12.4841 8.5986Z" fill="#F5F5F5"/>
<path d="M14.2004 8.5986L14.1234 8.82968L13.8798 8.83152C13.8483 8.83174 13.8352 8.87202 13.8606 8.89075L14.0565 9.03545L13.983 9.26769C13.9735 9.29775 14.0077 9.32264 14.0334 9.30429L14.2316 9.16264L14.4298 9.30429C14.4554 9.32264 14.4896 9.29775 14.4802 9.26769L14.4067 9.03545L14.6026 8.89075C14.628 8.87202 14.6149 8.83174 14.5834 8.83152L14.3398 8.82968L14.2628 8.5986C14.2527 8.5687 14.2104 8.5687 14.2004 8.5986Z" fill="#F5F5F5"/>
<path d="M12.4841 5.39547L12.4071 5.62655L12.1635 5.6284C12.132 5.62861 12.1189 5.6689 12.1442 5.68762L12.3401 5.83232L12.2666 6.06457C12.2571 6.09462 12.2914 6.11951 12.3171 6.10116L12.5152 5.95952L12.7134 6.10116C12.7391 6.11951 12.7733 6.09462 12.7638 6.06457L12.6903 5.83232L12.8862 5.68762C12.9116 5.6689 12.8985 5.62861 12.867 5.6284L12.6234 5.62655L12.5463 5.39547C12.5364 5.36557 12.4941 5.36557 12.4841 5.39547Z" fill="#F5F5F5"/>
<path d="M14.2004 5.39547L14.1234 5.62655L13.8798 5.6284C13.8483 5.62861 13.8352 5.6689 13.8606 5.68762L14.0565 5.83232L13.983 6.06457C13.9735 6.09462 14.0077 6.11951 14.0334 6.10116L14.2316 5.95952L14.4298 6.10116C14.4554 6.11951 14.4896 6.09462 14.4802 6.06457L14.4067 5.83232L14.6026 5.68762C14.628 5.6689 14.6149 5.62861 14.5834 5.6284L14.3398 5.62655L14.2628 5.39547C14.2527 5.36557 14.2104 5.36557 14.2004 5.39547Z" fill="#F5F5F5"/>
</svg>
